<svg width="80" height="80" viewBox="0 0 80 80" fill="none" xmlns="http://www.w3.org/2000/svg">
<circle cx="40" cy="40" r="40" fill="#DDDBFF"/>
<path d="M25.4167 27.583H27.5C28.6051 27.583 29.6649 27.144 30.4463 26.3626C31.2277 25.5812 31.6667 24.5214 31.6667 23.4163C31.6667 22.8638 31.8862 22.3339 32.2769 21.9432C32.6676 21.5525 33.1975 21.333 33.75 21.333H46.25C46.8025 21.333 47.3324 21.5525 47.7231 21.9432C48.1138 22.3339 48.3333 22.8638 48.3333 23.4163C48.3333 24.5214 48.7723 25.5812 49.5537 26.3626C50.3351 27.144 51.3949 27.583 52.5 27.583H54.5833C55.6884 27.583 56.7482 28.022 57.5296 28.8034C58.311 29.5848 58.75 30.6446 58.75 31.7497V50.4997C58.75 51.6047 58.311 52.6645 57.5296 53.446C56.7482 54.2274 55.6884 54.6663 54.5833 54.6663H25.4167C24.3116 54.6663 23.2518 54.2274 22.4704 53.446C21.689 52.6645 21.25 51.6047 21.25 50.4997V31.7497C21.25 30.6446 21.689 29.5848 22.4704 28.8034C23.2518 28.022 24.3116 27.583 25.4167 27.583Z" stroke="#030401" stroke-width="2.08333" stroke-linecap="round" stroke-linejoin="round"/>
<path d="M33.75 40.083C33.75 41.7406 34.4085 43.3303 35.5806 44.5024C36.7527 45.6745 38.3424 46.333 40 46.333C41.6576 46.333 43.2473 45.6745 44.4194 44.5024C45.5915 43.3303 46.25 41.7406 46.25 40.083C46.25 38.4254 45.5915 36.8357 44.4194 35.6636C43.2473 34.4915 41.6576 33.833 40 33.833C38.3424 33.833 36.7527 34.4915 35.5806 35.6636C34.4085 36.8357 33.75 38.4254 33.75 40.083Z" stroke="#030401" stroke-width="2.08333" stroke-linecap="round" stroke-linejoin="round"/>
</svg>
