<svg width="15" height="15" viewBox="0 0 15 15" fill="none" xmlns="http://www.w3.org/2000/svg">
<path d="M6.95 4.35008V5.97196C6.95392 6.16942 6.8983 6.3635 6.7904 6.52892C6.68249 6.69434 6.5273 6.82346 6.345 6.89946C6.22386 6.9502 6.09384 6.97633 5.9625 6.97633H4.3375C4.07539 6.97618 3.82395 6.87254 3.63785 6.68797C3.45175 6.50339 3.34606 6.25281 3.34375 5.99071V4.36883C3.34359 4.23837 3.36919 4.10917 3.4191 3.98863C3.469 3.86809 3.54222 3.7586 3.63456 3.66644C3.72689 3.57428 3.83653 3.50126 3.95716 3.45158C4.07779 3.40191 4.20704 3.37655 4.3375 3.37696H5.9625C6.22134 3.37885 6.46926 3.48153 6.65363 3.66322C6.83801 3.84491 6.94432 4.0913 6.95 4.35008ZM6.95 9.03446V10.6563C6.95033 10.9187 6.84654 11.1706 6.6614 11.3565C6.47626 11.5425 6.22491 11.6474 5.9625 11.6482H4.3375C4.07437 11.6479 3.82208 11.5433 3.63584 11.3574C3.4496 11.1716 3.34458 10.9195 3.34375 10.6563V9.03446C3.34507 8.77205 3.45046 8.52089 3.63677 8.33611C3.82308 8.15132 4.07509 8.048 4.3375 8.04883H5.9625C6.22398 8.04916 6.47468 8.15305 6.65974 8.33777C6.84481 8.52248 6.94917 8.77298 6.95 9.03446ZM11.6625 4.35008V5.97196C11.6662 6.23226 11.5673 6.48356 11.3872 6.67151C11.2071 6.85947 10.9602 6.96897 10.7 6.97633H9.08125C8.81914 6.97618 8.5677 6.87254 8.3816 6.68797C8.1955 6.50339 8.08981 6.25281 8.0875 5.99071V4.36883C8.08734 4.23837 8.11294 4.10917 8.16285 3.98863C8.21275 3.86809 8.28597 3.7586 8.37831 3.66644C8.47064 3.57428 8.58028 3.50126 8.70091 3.45158C8.82154 3.40191 8.95079 3.37655 9.08125 3.37696H10.7C10.9545 3.38522 11.1961 3.49071 11.3752 3.67174C11.5542 3.85276 11.657 4.09553 11.6625 4.35008ZM11.6625 9.04696V10.6688C11.6629 10.927 11.5626 11.1751 11.3828 11.3604C11.203 11.5456 10.958 11.6534 10.7 11.6607H9.08125C8.81812 11.6604 8.56583 11.5558 8.37959 11.3699C8.19335 11.1841 8.08833 10.932 8.0875 10.6688V9.04696C8.08899 8.7846 8.19442 8.53354 8.3807 8.34879C8.56697 8.16404 8.81889 8.06067 9.08125 8.06133H10.7C10.9567 8.06956 11.2002 8.17675 11.3796 8.36046C11.559 8.54418 11.6604 8.79018 11.6625 9.04696Z" fill="black"/>
<path d="M13.2813 6.05938C13.1576 6.05776 13.0394 6.00794 12.9518 5.92052C12.8643 5.83309 12.8143 5.71496 12.8125 5.59125V3.66375C12.8166 3.46849 12.7811 3.27443 12.708 3.09331C12.635 2.91219 12.5259 2.74777 12.3875 2.61C12.1129 2.33859 11.7424 2.18615 11.3563 2.18563H9.45002C9.32592 2.18563 9.20688 2.13641 9.119 2.04878C9.03113 1.96114 8.9816 1.84223 8.98127 1.71813C8.98119 1.65658 8.99326 1.59561 9.0168 1.53874C9.04033 1.48187 9.07487 1.4302 9.11842 1.38671C9.16197 1.34321 9.21368 1.30875 9.27059 1.28529C9.32749 1.26183 9.38847 1.24984 9.45002 1.25H11.375C12.0083 1.26623 12.6099 1.53064 13.05 1.98625C13.2729 2.20748 13.4496 2.47082 13.5697 2.76096C13.6899 3.05109 13.7512 3.36222 13.75 3.67625V5.60375C13.7469 5.72589 13.6961 5.84196 13.6085 5.92711C13.5209 6.01227 13.4034 6.05974 13.2813 6.05938ZM11.3563 13.75H9.45002C9.32592 13.75 9.20688 13.7008 9.119 13.6131C9.03113 13.5255 8.9816 13.4066 8.98127 13.2825C8.98119 13.221 8.99326 13.16 9.0168 13.1031C9.04033 13.0462 9.07487 12.9946 9.11842 12.9511C9.16197 12.9076 9.21368 12.8731 9.27059 12.8497C9.32749 12.8262 9.38847 12.8142 9.45002 12.8144H11.375C11.6632 12.8117 11.944 12.7234 12.1819 12.5607C12.4197 12.398 12.6038 12.1682 12.7106 11.9006C12.7812 11.7232 12.8158 11.5335 12.8125 11.3425V9.43375C12.8124 9.3722 12.8245 9.31124 12.848 9.25437C12.8716 9.19749 12.9061 9.14583 12.9497 9.10233C12.9932 9.05884 13.0449 9.02437 13.1018 9.00091C13.1587 8.97745 13.2197 8.96546 13.2813 8.96563C13.4055 8.96563 13.5246 9.01493 13.6125 9.1027C13.7004 9.19047 13.7499 9.30954 13.75 9.43375V11.3425C13.7515 11.8158 13.6118 12.2788 13.3487 12.6723C13.0856 13.0658 12.7111 13.3718 12.2731 13.5513C11.9825 13.6706 11.6706 13.7325 11.3563 13.7313V13.75ZM5.57502 13.75H3.65002C3.33395 13.7498 3.02101 13.6874 2.7291 13.5662C2.43719 13.445 2.17202 13.2675 1.94877 13.0438C1.72602 12.8203 1.54962 12.555 1.42971 12.2632C1.30979 11.9713 1.24873 11.6586 1.25002 11.3431V9.43438C1.24994 9.37283 1.26201 9.31186 1.28555 9.25499C1.30908 9.19812 1.34362 9.14645 1.38717 9.10296C1.43072 9.05946 1.48243 9.025 1.53934 9.00154C1.59624 8.97808 1.65722 8.96609 1.71877 8.96625C1.84293 8.96642 1.96197 9.01577 2.04982 9.10351C2.13768 9.19124 2.18719 9.31022 2.18752 9.43438V11.3431C2.18901 11.7297 2.34387 12.0998 2.61809 12.3723C2.89231 12.6448 3.26346 12.7972 3.65002 12.7963H5.57502C5.69923 12.7963 5.81837 12.8456 5.90626 12.9333C5.99414 13.0211 6.0436 13.1402 6.04377 13.2644C6.04385 13.3259 6.03178 13.3868 6.00823 13.4437C5.98469 13.5005 5.95014 13.5521 5.90658 13.5956C5.86302 13.639 5.81131 13.6734 5.75441 13.6968C5.6975 13.7202 5.63654 13.7321 5.57502 13.7319V13.75ZM1.71877 6.05938C1.59506 6.05776 1.47686 6.00794 1.38932 5.92052C1.30178 5.83309 1.2518 5.71496 1.25002 5.59125V3.66375C1.25081 3.35187 1.31303 3.04319 1.43314 2.75536C1.55325 2.46753 1.72889 2.20619 1.95002 1.98625C2.4009 1.53989 3.00932 1.28889 3.64377 1.2875H5.56877C5.69298 1.2875 5.81212 1.3368 5.90001 1.42457C5.9879 1.51235 6.03735 1.63141 6.03752 1.75563C6.03752 1.81712 6.02539 1.87802 6.00181 1.93482C5.97824 1.99162 5.94369 2.04321 5.90015 2.08664C5.85661 2.13007 5.80492 2.16448 5.74806 2.1879C5.69119 2.21132 5.63027 2.22329 5.56877 2.22313H3.64377C3.25716 2.22196 2.88591 2.37439 2.61166 2.64689C2.3374 2.91938 2.18259 3.28964 2.18127 3.67625V5.60375C2.1782 5.72481 2.12828 5.83995 2.04201 5.92494C1.95574 6.00993 1.83986 6.05812 1.71877 6.05938Z" fill="black"/>
</svg>
